<mxfile host="app.diagrams.net" modified="2024-01-16T22:15:09.023Z" agent="Mozilla/5.0 (Windows NT 10.0; Win64; x64; rv:121.0) Gecko/20100101 Firefox/121.0" etag="fzfv4NxL3OBRkdrAvhhT" version="22.1.20" type="github">
  <diagram name="Page-1" id="oDPZEiXpk-Xnv8on-RpE">
    <mxGraphModel dx="846" dy="533" grid="1" gridSize="10" guides="1" tooltips="1" connect="1" arrows="1" fold="1" page="1" pageScale="1" pageWidth="827" pageHeight="583" math="0" shadow="0">
      <root>
        <mxCell id="0" />
        <mxCell id="1" parent="0" />
        <mxCell id="-zZVdHQ4RRWeRvNeoLQx-22" style="edgeStyle=orthogonalEdgeStyle;rounded=0;orthogonalLoop=1;jettySize=auto;html=1;exitX=0.25;exitY=0;exitDx=0;exitDy=0;" edge="1" parent="1" source="-zZVdHQ4RRWeRvNeoLQx-6" target="-zZVdHQ4RRWeRvNeoLQx-20">
          <mxGeometry relative="1" as="geometry" />
        </mxCell>
        <mxCell id="-zZVdHQ4RRWeRvNeoLQx-26" value="Feeds mixed water into" style="edgeLabel;html=1;align=center;verticalAlign=middle;resizable=0;points=[];" vertex="1" connectable="0" parent="-zZVdHQ4RRWeRvNeoLQx-22">
          <mxGeometry x="-0.3338" relative="1" as="geometry">
            <mxPoint as="offset" />
          </mxGeometry>
        </mxCell>
        <mxCell id="-zZVdHQ4RRWeRvNeoLQx-6" value="&lt;font style=&quot;font-size: 18px;&quot;&gt;Water Reservoir&lt;/font&gt;" style="rounded=0;whiteSpace=wrap;html=1;fillColor=#dae8fc;strokeColor=#6c8ebf;" vertex="1" parent="1">
          <mxGeometry x="152" y="190" width="260" height="110" as="geometry" />
        </mxCell>
        <mxCell id="-zZVdHQ4RRWeRvNeoLQx-3" value="" style="endArrow=none;html=1;rounded=0;" edge="1" parent="1">
          <mxGeometry width="50" height="50" relative="1" as="geometry">
            <mxPoint x="152" y="300" as="sourcePoint" />
            <mxPoint x="152" y="120" as="targetPoint" />
          </mxGeometry>
        </mxCell>
        <mxCell id="-zZVdHQ4RRWeRvNeoLQx-4" value="" style="endArrow=none;html=1;rounded=0;" edge="1" parent="1">
          <mxGeometry width="50" height="50" relative="1" as="geometry">
            <mxPoint x="152" y="300" as="sourcePoint" />
            <mxPoint x="412" y="300" as="targetPoint" />
          </mxGeometry>
        </mxCell>
        <mxCell id="-zZVdHQ4RRWeRvNeoLQx-5" value="" style="endArrow=none;html=1;rounded=0;" edge="1" parent="1">
          <mxGeometry width="50" height="50" relative="1" as="geometry">
            <mxPoint x="412" y="300" as="sourcePoint" />
            <mxPoint x="412" y="120" as="targetPoint" />
          </mxGeometry>
        </mxCell>
        <mxCell id="-zZVdHQ4RRWeRvNeoLQx-17" style="edgeStyle=orthogonalEdgeStyle;rounded=0;orthogonalLoop=1;jettySize=auto;html=1;exitX=0.5;exitY=0;exitDx=0;exitDy=0;exitPerimeter=0;entryX=1;entryY=0.5;entryDx=0;entryDy=0;" edge="1" parent="1" source="-zZVdHQ4RRWeRvNeoLQx-7" target="-zZVdHQ4RRWeRvNeoLQx-11">
          <mxGeometry relative="1" as="geometry" />
        </mxCell>
        <mxCell id="-zZVdHQ4RRWeRvNeoLQx-7" value="pH UP solution (Increases pH)" style="shape=cylinder3;whiteSpace=wrap;html=1;boundedLbl=1;backgroundOutline=1;size=15;rotation=0;" vertex="1" parent="1">
          <mxGeometry x="450" y="190" width="70" height="110" as="geometry" />
        </mxCell>
        <mxCell id="-zZVdHQ4RRWeRvNeoLQx-18" style="edgeStyle=orthogonalEdgeStyle;rounded=0;orthogonalLoop=1;jettySize=auto;html=1;exitX=0.5;exitY=0;exitDx=0;exitDy=0;exitPerimeter=0;entryX=1;entryY=0.5;entryDx=0;entryDy=0;" edge="1" parent="1" source="-zZVdHQ4RRWeRvNeoLQx-9" target="-zZVdHQ4RRWeRvNeoLQx-11">
          <mxGeometry relative="1" as="geometry" />
        </mxCell>
        <mxCell id="-zZVdHQ4RRWeRvNeoLQx-9" value="pH DOWN solution (Decreases pH)" style="shape=cylinder3;whiteSpace=wrap;html=1;boundedLbl=1;backgroundOutline=1;size=15;rotation=0;" vertex="1" parent="1">
          <mxGeometry x="550" y="190" width="70" height="110" as="geometry" />
        </mxCell>
        <mxCell id="-zZVdHQ4RRWeRvNeoLQx-19" style="edgeStyle=orthogonalEdgeStyle;rounded=0;orthogonalLoop=1;jettySize=auto;html=1;exitX=0.5;exitY=0;exitDx=0;exitDy=0;exitPerimeter=0;entryX=1;entryY=0.5;entryDx=0;entryDy=0;" edge="1" parent="1" source="-zZVdHQ4RRWeRvNeoLQx-10" target="-zZVdHQ4RRWeRvNeoLQx-11">
          <mxGeometry relative="1" as="geometry" />
        </mxCell>
        <mxCell id="-zZVdHQ4RRWeRvNeoLQx-10" value="Nutrient solution" style="shape=cylinder3;whiteSpace=wrap;html=1;boundedLbl=1;backgroundOutline=1;size=15;rotation=0;" vertex="1" parent="1">
          <mxGeometry x="640" y="190" width="70" height="110" as="geometry" />
        </mxCell>
        <mxCell id="-zZVdHQ4RRWeRvNeoLQx-24" style="edgeStyle=orthogonalEdgeStyle;rounded=0;orthogonalLoop=1;jettySize=auto;html=1;exitX=0.25;exitY=1;exitDx=0;exitDy=0;" edge="1" parent="1" source="-zZVdHQ4RRWeRvNeoLQx-11">
          <mxGeometry relative="1" as="geometry">
            <mxPoint x="355" y="180" as="targetPoint" />
            <Array as="points">
              <mxPoint x="355" y="180" />
            </Array>
          </mxGeometry>
        </mxCell>
        <mxCell id="-zZVdHQ4RRWeRvNeoLQx-25" value="Feeds solutions into" style="edgeLabel;html=1;align=center;verticalAlign=middle;resizable=0;points=[];" vertex="1" connectable="0" parent="-zZVdHQ4RRWeRvNeoLQx-24">
          <mxGeometry x="-0.0853" y="-2" relative="1" as="geometry">
            <mxPoint as="offset" />
          </mxGeometry>
        </mxCell>
        <mxCell id="-zZVdHQ4RRWeRvNeoLQx-11" value="Dosing Pumps" style="rounded=0;whiteSpace=wrap;html=1;" vertex="1" parent="1">
          <mxGeometry x="320" y="50" width="140" height="60" as="geometry" />
        </mxCell>
        <mxCell id="-zZVdHQ4RRWeRvNeoLQx-20" value="Plant system" style="rounded=0;whiteSpace=wrap;html=1;" vertex="1" parent="1">
          <mxGeometry x="152" y="30" width="130" height="80" as="geometry" />
        </mxCell>
      </root>
    </mxGraphModel>
  </diagram>
</mxfile>
